# xmcd
#
# Track frame offsets:
#	150
#	32480
#	63288
#	113721
#	172094
#	230030
#	253283
#	289633
#	327923
#
# Disc length: 4570 seconds
#
# Revision: 0
# Processed by: cddbd v1.5.2PL0 Copyright (c) Steve Scherf et al.
# Submitted via: audiograbber 1.83.01
#
DISCID=7f11d809
DTITLE=Grateful Dead - 93-06-16 Freedom Hall, Louisville KY
DYEAR=1900
DGENRE=
TTITLE0=Saint Of Circumstance
TTITLE1=Lazy River Road
TTITLE2=Corrina
TTITLE3=Drums > Space
TTITLE4=Space
TTITLE5=I Need A Miracle
TTITLE6=Stella Blue
TTITLE7=Good Lovin'
TTITLE8=I Fought The Law
EXTD=
EXTT0=
EXTT1=
EXTT2=
EXTT3=
EXTT4=
EXTT5=
EXTT6=
EXTT7=
EXTT8=
PLAYORDER=
